<svg width="249" height="224" viewBox="0 0 249 224" fill="none" xmlns="http://www.w3.org/2000/svg">
<path d="M38.688 183.44C31.52 183.44 25.376 182.192 20.256 179.696C15.136 177.136 11.2 173.52 8.448 168.848C5.696 164.112 4.32 158.448 4.32 151.856C4.32 144.88 5.76 138.8 8.64 133.616C11.584 128.432 15.68 124.4 20.928 121.52C26.176 118.64 32.288 117.2 39.264 117.2C43.232 117.2 46.976 117.648 50.496 118.544C54.08 119.44 57.248 120.72 60 122.384L56.64 133.904C54.144 132.368 51.36 131.184 48.288 130.352C45.28 129.456 42.272 129.008 39.264 129.008C35.04 129.008 31.328 129.936 28.128 131.792C24.928 133.584 22.432 136.112 20.64 139.376C18.848 142.64 17.952 146.48 17.952 150.896C17.952 157.296 19.872 162.352 23.712 166.064C27.616 169.712 32.928 171.536 39.648 171.536C42.336 171.536 44.832 171.344 47.136 170.96V157.712H39.072V146.48H59.904V179.696C53.312 182.192 46.24 183.44 38.688 183.44Z" fill="#2C257F"/>
<path d="M228.576 183.248C218.4 183.248 210.4 180.496 204.576 174.992C198.816 169.488 195.936 161.712 195.936 151.664C195.936 144.688 197.28 138.64 199.968 133.52C202.72 128.336 206.56 124.304 211.488 121.424C216.48 118.544 222.272 117.104 228.864 117.104C231.616 117.104 234.272 117.36 236.832 117.872C239.392 118.384 241.856 119.088 244.224 119.984L241.632 132.368C239.52 131.408 237.408 130.672 235.296 130.16C233.184 129.648 231.072 129.392 228.96 129.392C223.072 129.392 218.432 131.312 215.04 135.152C211.712 138.992 210.048 144.048 210.048 150.32C210.048 156.784 211.84 161.808 215.424 165.392C219.008 168.976 223.968 170.768 230.304 170.768C232.224 170.768 234.208 170.608 236.256 170.288C238.368 169.904 240.416 169.392 242.4 168.752L244.512 180.56C239.84 182.352 234.528 183.248 228.576 183.248Z" fill="#29A1D8"/>
<path d="M96.728 183.728L79.736 136.88L75.704 182H63.32L69.368 118.064H86.648L102.968 163.952L118.808 118.064H136.088L141.944 182H129.464L125.048 137.072L108.152 182.672L96.728 183.728Z" fill="#2C257F"/>
<path d="M136.672 182L160.096 118.064H176.8L200.512 182H186.112L180.928 167.408H155.776L150.88 182H136.672ZM159.808 155.504H176.8L168.16 131.024L159.808 155.504Z" fill="#2C257F"/>
<rect x="163.518" y="145" width="3" height="36" transform="rotate(18.6586 163.518 145)" fill="white"/>
<rect x="148.207" y="141" width="3.31757" height="44.4371" transform="rotate(20.0116 148.207 141)" fill="white"/>
<path d="M120.5 0.5V46.5H74.5V25.5H99.5V0.5H120.5Z" fill="#29A1D8" stroke="white"/>
<path d="M75 75V55H120V75H75Z" fill="#29A1D8"/>
<path d="M120 100H100V55H120V100Z" fill="#29A1D8"/>
<path d="M150 1H130V46H150V1Z" fill="#2C257F"/>
<path d="M175 46V26H130V46H175Z" fill="#2C257F"/>
<path d="M175 75V55H130V75H175Z" fill="#2C257F"/>
<path d="M130 100H150V55H130V100Z" fill="#2C257F"/>
</svg>
